/* XPM */
static char *cc96b4d100bd4cffd0d4d7eb60d76e68IggFqtTXZo7Jo3Rq[] = {
/* columns rows colors chars-per-pixel */
"64 64 240 2 ",
"   c None",
".  c #023E15",
"X  c #083817",
"o  c #0B3414",
"O  c #293B31",
"+  c #0F3B22",
"@  c #014216",
"#  c #03451A",
"$  c #034B1D",
"%  c #0A471E",
"&  c #00521F",
"*  c #094B22",
"=  c #164927",
"-  c #045422",
";  c #035B25",
":  c #0A5A29",
">  c #13532C",
",  c #16562C",
"<  c #1D5C34",
"1  c #284A35",
"2  c #344E3D",
"3  c #265837",
"4  c #2D4E38",
"5  c #04642A",
"6  c #0A642D",
"7  c #026C2C",
"8  c #05652A",
"9  c #01732E",
"0  c #0C6C32",
"q  c #0B6931",
"w  c #136332",
"e  c #136A35",
"r  c #1A6939",
"t  c #047431",
"y  c #0B7435",
"u  c #037A32",
"i  c #0B7B37",
"p  c #16763B",
"a  c #27633D",
"s  c #24743B",
"d  c #374D42",
"f  c #345341",
"g  c #3A5947",
"h  c #1A7840",
"j  c #296B42",
"k  c #366A4B",
"l  c #217A45",
"z  c #287848",
"x  c #377A52",
"c  c #3A734E",
"v  c #435A4C",
"b  c #485C53",
"n  c #44624B",
"m  c #4A6754",
"M  c #556D5D",
"N  c #467759",
"B  c #57735B",
"V  c #596F61",
"C  c #577763",
"Z  c #4B7B61",
"A  c #647969",
"S  c #6A7771",
"D  c #647C5F",
"F  c #BF1411",
"G  c #BB2B2A",
"H  c #C10D0D",
"J  c #CB0D0F",
"K  c #CA0E11",
"L  c #CC1D1D",
"P  c #C51715",
"I  c #D11C1D",
"U  c #D31619",
"Y  c #C6100F",
"T  c #C82725",
"R  c #DC272B",
"E  c #CC3232",
"W  c #D33233",
"Q  c #E23339",
"!  c #E22F36",
"~  c #D81C23",
"^  c #E33D43",
"/  c #957F67",
"(  c #BB7772",
")  c #9E6556",
"_  c #CE4B4D",
"`  c #E34248",
"'  c #E45C5F",
"]  c #CF6E6D",
"[  c #E66E70",
"{  c #038435",
"}  c #098333",
"|  c #0B8D34",
" . c #0C8339",
".. c #078B38",
"X. c #14873B",
"o. c #09953A",
"O. c #139436",
"+. c #199838",
"@. c #299A37",
"#. c #379B39",
"$. c #2F893A",
"%. c #19A139",
"&. c #0FA036",
"*. c #2CA23B",
"=. c #23A239",
"-. c #33A33B",
";. c #3CA53C",
":. c #3AA638",
">. c #45983B",
",. c #43A93B",
"<. c #48A538",
"1. c #59AA3B",
"2. c #64AA3C",
"3. c #0E8C41",
"4. c #1A8744",
"5. c #179443",
"6. c #268549",
"7. c #279748",
"8. c #2D8551",
"9. c #358856",
"0. c #2B9454",
"q. c #2A9956",
"w. c #37945B",
"e. c #36924E",
"r. c #1FA24E",
"t. c #38A644",
"y. c #34A35B",
"u. c #2CA84F",
"i. c #3C9D62",
"p. c #3F8960",
"a. c #3CAF63",
"s. c #418659",
"d. c #4E9B4E",
"f. c #47A746",
"g. c #59AB48",
"h. c #4BAA54",
"j. c #5AA755",
"k. c #5EB250",
"l. c #67AC40",
"z. c #75AE47",
"x. c #78B44A",
"c. c #64B155",
"v. c #79B956",
"b. c #65B04E",
"n. c #488963",
"m. c #57876A",
"M. c #489567",
"N. c #5D8E72",
"B. c #5C9874",
"V. c #50996D",
"C. c #6B8877",
"Z. c #768779",
"A. c #669778",
"S. c #7A937D",
"D. c #678469",
"F. c #49A565",
"G. c #57A56B",
"H. c #58A975",
"J. c #5AB66C",
"K. c #66A47D",
"L. c #68BB7B",
"P. c #76B677",
"I. c #6EB468",
"U. c #77C37A",
"Y. c #86BB58",
"T. c #82B74B",
"R. c #968668",
"E. c #9E8070",
"W. c #B28C79",
"Q. c #8BBD66",
"!. c #8FB571",
"~. c #91C164",
"^. c #95C369",
"/. c #96C575",
"(. c #89C16A",
"). c #A7CC7E",
"_. c #92C25F",
"`. c #EA7F83",
"'. c #7A8C83",
"]. c #7A9986",
"[. c #6B9981",
"{. c #6AA381",
"}. c #78A989",
"|. c #72B688",
" X c #77B890",
".X c #7CC395",
"XX c #859886",
"oX c #899A94",
"OX c #8B948E",
"+X c #B09C8C",
"@X c #8CA997",
"#X c #95A598",
"$X c #86B598",
"%X c #8AB18D",
"&X c #A7AC8D",
"*X c #9CB6A6",
"=X c #98A8A3",
"-X c #A4B6AA",
";X c #ADB9B4",
":X c #D28F89",
">X c #D4A99F",
",X c #99C789",
"<X c #89C798",
"1X c #99C995",
"2X c #8BC383",
"3X c #A6CA8D",
"4X c #AACD96",
"5X c #B4C99A",
"6X c #ADD294",
"7X c #95C7A4",
"8X c #8EC0A2",
"9X c #A4C9AA",
"0X c #ACC6B5",
"qX c #B4C4BB",
"wX c #B6C9BD",
"eX c #BAD3AA",
"rX c #C1D7A6",
"tX c #C7DDBB",
"yX c #C4E0B8",
"uX c #BACAC2",
"iX c #BCD3C4",
"pX c #BBE1C3",
"aX c #C8CDCA",
"sX c #C8D8CA",
"dX c #CEDAD2",
"fX c #CDD6D0",
"gX c #DCDEDD",
"hX c #D5DAD5",
"jX c #D5DCCE",
"kX c #CBE2C7",
"lX c #D5E4CC",
"zX c #D8E7D8",
"xX c #CBE3D3",
"cX c #E3ECDD",
"vX c #DFE6E2",
"bX c #E4E5E4",
"nX c #E7ECE9",
"mX c #EBF2EB",
"MX c #F5F5F5",
"NX c #FBFBFB",
/* pixels */
"                                                                                                                                ",
"                                                                                                                                ",
"                                                                                                                                ",
"                                                                                                                                ",
"                                                                                                                                ",
"                                                                                                                                ",
"                                                                                                                                ",
"                                                                                                                                ",
"                                                                                                                                ",
"                                                                                                                                ",
"                                                                                                                                ",
"                                                                                                                                ",
"                                                                                                                                ",
"                                                                                                                                ",
"                                                                                                                                ",
"                                                                                                                                ",
"                                                                                                                                ",
"                                          -XaX-XoXoX*XqXqX-X'.S ].;XwXwX-XoX=X-XuX=XoXS                                         ",
"                                    g k 3 c s.l h 6.e.g.j.d.#.+.X.7.@.7.7.3.7.e.9.6.r , < c g                                   ",
"                                    $ , $.b.#.+.=.g.!.kX5X4X<X#.t.:.:.L.pX.X5.-.l.1...t e q *                                   ",
"                                  o r s j.c.d.*XxX(.3XNXeX,X7X;.#.<.f.0X.X2X Xt.1XkXL.o.t h < #                                 ",
"                                X > e d.3Xc.H.$X2X/.eXmXsX%X7X<.;.f.j.7Xc.I.*Xh.6XyX<Xi.3.9.0 q                                 ",
"                                * y C.eX6Xb.|.0X,X3XeXcX/.*X$Xb.g.2.j.*X!.I.*Xk.6XzXsXF.r.uXh h p                               ",
"                              X x X.qXjX6XT.2X*X!.h.G.@Xt.M.p.+.+.+.@.J.9X9XL.f.9X7XuX7.5.uXh z x :                             ",
"                              2 N 0. XeXyX6Xv.G.q.5...3.3.{ { u { o.o.o.*.:.,.1.F.5.{.z n.$Xw.$Xz 4                             ",
"                              X @XF.c.tX)._.1.=.o.{ u 7 5 5 5 5 t 3.3.3.o.&.%.:.%...u y N.0. X Xc >                             ",
"                              f m.8XQ.Q./.Y.t.3.{ h h z 9.n.5 9.+Xq.3.y.r.a.u.u.o.h y p t  .|.*X[.f                             ",
"                              A M.H.k.Y././.h.y.H.M.l B.z x 0 +XG *X3.r.u.J.J.U.a.e.z j e u 5.H.x c                             ",
"                              V  X3.h.!.).(.P.y.0.i 0 5 5 5 [._ P ( H.O.&.%.,.u.r.0.9.c j 9.3...{.m                             ",
"                              M y ..L./.3X/.-.o.{ t 7 q ; h +XF P E &Xy.%.*.,.,.O.{ e r N.h {.h h Z                             ",
"                              3 0 w.f.Q./.x.-.| { t 7 7 5 B._ F H K ] J.%.>.,.,.+.} 9 ; z K.0.V.h k                             ",
"                              3 p w.I.v._.~.!.R./ / E./ E.:XG F Y P W :X+X).W.).E.D A r 5 l {.n.6 k                             ",
"                              % l w.-.Y.~.Y.!.] ~ J I I L L H F H J U R Q Q Q ! ` ] m.6 ; y 6.8.j >                             ",
"                              = x M.h.v.~.x.>.h.&X_ I I L L P F H K ~ R Q Q ` [ &Xw.7 5 5 8 6.9.Z <                             ",
"                              % N.H.t.Y.~.v.;.O.X.9.-X] T T P F H J U R ^ :XeXI.+...7 5 : 0 p s.N.>                             ",
"                              % A.w.;.Y.^.x.:.O.} 9 e qXW L F F H K U R ' 5Xg.1.=.{ 9 5 8 0 y p N.>                             ",
"                              X {.0.t.Y.^.v.,.+.} 9 V.:XL L G F F J P R ! :X/.l.@...7 ; ; 7 t l N.3                             ",
"                              = {.0.1.v.~.x.:.&.} i -XR L L E ( +X] W R ! [ 5Xb.=...9 q ; 5 i 9.N.3                             ",
"                              =  Xi.;.Y.6X(.I.7.| V.W.~ R ] OX8.t G.&X`.` ` >Xv.t.i.B.n.j h y 9.N.3                             ",
"                              = }.y.:.v./._.h.7.O.XX_ :XP.0 7 t u | +.h.3X>X[ 3Xu.7.p.j < q u 8.N.3                             ",
"                              = p.y.;.v.~.x.,.+.| }.}.p 7 7 7 7 9 | +.:.1.v.6X3X@...t 6 : 0 i 9.x =                             ",
"                              o : y #.b.Y.z.@.| y 6 q 8 ; q - ; ; 9 } O.*.-.;.-.+.u 8 : * - e e : X                             ",
"                              2 g k A.5XrXrX%XV.m.A.].XXXXC.B 2 1 k N K.<X1X7X1X Xm.N g 4 f [.}.M 2                             ",
"                              o - y +.1.T.2.#.i y 8 ; & $ # # @ # 8 u +.@.-.-.@...t ; - @ * * - - .                             ",
"                              o a qX%X1.T.z.>.} 9 6 ; $ $ @ @ @ * ; u | @.<.#.@...u sXaXuXm - ; $ X                             ",
"                              o k aXtXl.T.z.>.} 9 5 ; & $ # @ @ # 5 u | @.#.:.-...u s.gXzXN - ; - X                             ",
"                              = a A.I.l.Y.!.c.e.4.n.A.A.a @ @ # # 6 8.H.<X1XI.f.| u l fXgXm.x XXm.3                             ",
"                              V B fXlXT.5XMXMXcXdXbXbXbXdXa @ . < 0XbXvXsXzXNXcXi.u p fXgXC n.aXC.m                             ",
"                              OXk wXlXz.Q.zXMXnX$Xm.fXbXbXS.* 3 ;XMXnXH.+.c.zXNXxXw.z fXgXm.=X;X< B                             ",
"                              Z.k wXlXx.Y.lXMXzX8.q 0XnXbXXX@ @XbXMXkX0.+.j.kXNXnXB.l fXgXgXzX*X, A                             ",
"                              + a uXjXb.Y.lXNXhX8.q qXbXbXXX# -XnXMXMXxXnXMXsX,X5.u l fXbXhXhXaXa A                             ",
"                              b N wXsXx.Y.lXMXjX8.e qXbXcX].@ m.bXMXMX<Xy.;.<.;.|.M.l fXbXm.m.aXD.M                             ",
"                              XXC aXlXQ.!.cXMXcXB.q qXbXbX#Xm = @XMXMXxXP.P./.tXnX|.M.gXgX#Xj =X#XM                             ",
"                              1 m.0XsX5XtXcXzXzXdXr A.dXbXdX].# * %XsXmXNXMXmXxXF...iXfXuXqXz m.'.f                             ",
"                              o : 9 X.l.2.2.+.i u 5 ; ; $ * @ @ # ; 7 { @.<.<.<...u 7 - $ * ; - * X                             ",
"                              o r h h.Y.Y.Y.7.u 9 5 x N $ < , . , : t q.@.>.<.:.q.u z r , , , j f X                             ",
"                              o > < p $.>.d.X.p 0 q w : $ > * @ * ; 7  .| @.@.X.} 7 6 * * # = > = +                             ",
"                                O d b m g 2 d d f g n n v v 2 2 2 d f f n N B B C A C M m S XXV O                               ",
"                                    v b b m v d b m M S C.A M V M M M D C.XX@X#X#XoXZ.Z.#XOXv                                   ",
"                                      1 2 m A m n v n n n v n m m B B A C.C.].R.S.A C '.Z.O                                     ",
"                                                                                                                                ",
"                                                                                                                                ",
"                                                                                                                                ",
"                                                                                                                                "
};
